<svg preserveAspectRatio="xMidYMid meet" viewBox="43.199999999999996 42.03023758099352 198 62.44492440604751" xmlns="http://www.w3.org/2000/svg" version="1.0" style="max-height: 500px" width="198" height="62.44492440604751">  <g stroke="none" fill="#178a00" transform="translate(0.000000,139.000000) scale(0.100000,-0.100000)"> <path d="M1706 948 c-18 -26 -10 -41 8 -15 10 13 27 17 69 17 53 0 58 -2 72 -30 15 -28 55 -43 55 -20 0 6 -9 10 -20 10 -11 0 -20 6 -20 13 0 29 -36 47 -93 47 -46 0 -59 -4 -71 -22z"/> <path d="M482 935 c-24 -20 -32 -35 -32 -61 0 -46 27 -70 94 -84 60 -12 86 -30 86 -59 0 -28 -37 -55 -75 -55 -45 0 -73 27 -77 73 -2 24 -8 36 -18 36 -12 0 -15 -14 -15 -69 0 -47 4 -71 13 -74 6 -2 12 3 12 12 0 20 0 20 39 0 66 -33 152 11 154 78 1 49 -23 74 -86 89 -72 16 -87 26 -87 54 0 50 61 72 108 39 15 -11 22 -25 22 -50 0 -24 5 -34 15 -34 12 0 15 13 15 60 0 55 -2 60 -22 60 -13 0 -44 3 -69 6 -39 5 -50 2 -77 -21z"/> <path d="M1567 943 c-8 -10 -17 -29 -19 -43 -2 -17 -9 -25 -23 -25 -11 0 -21 -8 -23 -17 -3 -14 3 -18 22 -18 25 0 26 -2 26 -67 0 -74 -6 -89 -33 -94 -10 -2 -18 -8 -18 -14 1 -15 123 -13 129 3 2 7 -6 12 -22 12 -26 0 -26 1 -26 79 0 79 0 80 28 83 38 4 37 34 -1 31 -25 -2 -28 1 -25 24 4 35 47 53 55 23 7 -25 43 -27 43 -2 0 10 -5 23 -12 30 -18 18 -82 15 -101 -5z"/> <path d="M1886 953 c-13 -13 -5 -23 19 -23 l25 0 0 -109 c0 -67 4 -112 11 -116 6 -4 12 -5 14 -4 2 2 5 60 6 129 l3 124 -36 2 c-20 2 -39 0 -42 -3z"/> <path d="M2058 938 c-8 -21 2 -38 22 -38 19 0 30 17 23 38 -3 6 -13 12 -23 12 -10 0 -20 -6 -22 -12z"/> <path d="M825 882 c-11 -2 -28 -11 -37 -20 -16 -14 -18 -14 -18 1 0 12 -9 16 -37 14 -42 -2 -59 -27 -19 -27 26 0 26 0 26 -84 0 -77 -2 -85 -20 -88 -45 -7 -17 -23 40 -23 58 0 88 17 43 23 -21 3 -23 9 -23 67 0 78 6 94 38 106 18 7 31 5 48 -6 22 -14 24 -23 24 -90 0 -66 -2 -74 -20 -77 -46 -7 -22 -23 38 -25 49 -2 62 0 62 12 0 8 -9 15 -19 15 -17 0 -19 9 -22 79 -5 102 -34 137 -104 123z"/> <path d="M1053 878 c-53 -14 -71 -78 -22 -78 17 0 20 5 16 21 -7 27 31 46 62 30 29 -16 29 -59 -1 -65 -93 -17 -103 -22 -116 -50 -13 -25 -12 -31 5 -55 25 -32 95 -42 123 -16 16 14 18 14 23 0 9 -23 64 -19 77 6 13 24 10 61 -7 66 -7 3 -13 -9 -15 -29 -6 -62 -23 -33 -29 47 -4 65 -14 115 -23 115 0 0 -15 4 -31 8 -17 5 -45 5 -62 0z m77 -137 c0 -39 -24 -61 -65 -61 -26 0 -35 5 -41 22 -8 26 17 48 57 48 15 0 31 5 34 10 11 17 15 11 15 -19z"/> <path d="M1343 875 c-20 -9 -34 -10 -41 -3 -12 12 -78 6 -75 -7 1 -5 11 -12 23 -15 12 -3 21 -8 21 -12 -1 -5 -1 -60 -1 -123 0 -108 -1 -115 -20 -115 -11 0 -20 -6 -20 -13 0 -18 122 -17 128 1 2 7 -6 12 -21 12 -21 0 -25 6 -29 35 -4 34 4 46 17 25 3 -5 25 -10 49 -10 32 0 48 6 66 25 31 33 39 118 16 163 -9 18 -18 32 -19 32 -1 0 -16 4 -33 9 -21 6 -40 4 -61 -4z m83 -62 c28 -67 0 -133 -56 -133 -42 0 -60 24 -60 78 0 63 21 92 66 92 31 0 37 -4 50 -37z"/> <path d="M2237 879 c-40 -11 -57 -28 -57 -55 0 -19 5 -24 26 -24 23 0 25 3 20 24 -5 20 -1 25 19 30 33 8 65 -9 65 -35 0 -21 -24 -34 -82 -44 -62 -10 -87 -66 -48 -105 25 -25 101 -28 121 -4 11 14 13 14 21 0 11 -19 67 -21 73 -3 12 34 9 72 -5 72 -9 0 -15 -9 -15 -25 0 -15 -6 -26 -17 -28 -16 -3 -18 6 -18 81 0 67 -3 87 -17 99 -24 21 -52 26 -86 17z m57 -180 c-24 -27 -87 -23 -93 5 -4 24 24 46 60 46 15 0 31 6 36 13 5 8 9 2 11 -16 2 -17 -4 -37 -14 -48z"/> <path d="M1731 862 c-50 -25 -73 -62 -73 -112 1 -24 6 -48 13 -54 9 -8 10 -2 6 28 -11 71 38 136 103 136 33 0 79 -31 93 -62 13 -30 27 -37 27 -14 0 20 -38 65 -70 81 -37 19 -57 19 -99 -3z"/> <path d="M2024 869 c-8 -13 3 -24 24 -24 14 0 17 -13 20 -75 2 -58 7 -78 20 -86 16 -10 17 -3 15 90 l-1 100 -36 3 c-19 1 -38 -3 -42 -8z"/> <path d="M1760 823 c-32 -12 -50 -37 -50 -70 0 -21 4 -32 10 -28 6 4 8 10 5 15 -11 17 15 60 40 66 21 5 33 0 56 -22 31 -30 40 -19 12 14 -20 23 -50 33 -73 25z"/> <path d="M1806 739 c-21 -5 -64 -23 -95 -39 -62 -34 -201 -154 -201 -175 0 -21 95 -92 179 -133 69 -34 82 -37 160 -37 117 0 176 28 281 133 43 42 98 94 122 114 l43 37 -40 -6 c-22 -3 -47 -12 -56 -19 -21 -19 -33 -18 -55 7 -20 23 -123 95 -149 105 -11 5 -15 0 -15 -17 0 -18 16 -35 68 -69 87 -59 91 -79 25 -143 -99 -98 -211 -124 -334 -78 -61 23 -164 90 -164 107 0 17 116 114 169 141 28 14 75 28 106 30 53 5 56 7 52 29 -5 27 -26 29 -96 13z"/> <path d="M1740 600 c-27 -27 -27 -93 0 -120 15 -15 31 -20 60 -18 38 3 40 5 40 35 0 17 6 34 13 36 6 3 -6 5 -28 5 -22 0 -32 -2 -22 -5 12 -3 17 -12 15 -26 -2 -17 -10 -22 -33 -22 -23 0 -32 6 -39 28 -16 44 3 82 39 82 23 0 31 -5 33 -22 5 -35 22 -27 22 10 0 32 -2 34 -40 35 -28 1 -46 -4 -60 -18z"/> <path d="M1895 600 c-11 -12 -18 -35 -18 -60 0 -49 25 -80 64 -80 37 0 59 33 59 87 0 32 -5 46 -22 57 -30 22 -61 20 -83 -4z m74 -14 c17 -21 10 -87 -11 -100 -28 -17 -52 5 -56 48 -4 41 11 66 38 66 10 0 23 -6 29 -14z"/> </g> </svg>